<svg width="25" height="24" viewBox="0 0 25 24" fill="none" xmlns="http://www.w3.org/2000/svg">
<g id="vuesax/bold/logout">
<g id="logout">
<path id="Vector" d="M17.3 2H14.7C11.5 2 9.5 4 9.5 7.2V11.25H15.75C16.16 11.25 16.5 11.59 16.5 12C16.5 12.41 16.16 12.75 15.75 12.75H9.5V16.8C9.5 20 11.5 22 14.7 22H17.29C20.49 22 22.49 20 22.49 16.8V7.2C22.5 4 20.5 2 17.3 2Z" fill="white"/>
<path id="Vector_2" d="M5.05994 11.25L7.12994 9.18C7.27994 9.03 7.34994 8.84 7.34994 8.65C7.34994 8.46 7.27994 8.26 7.12994 8.12C6.83994 7.83 6.35994 7.83 6.06994 8.12L2.71994 11.47C2.42994 11.76 2.42994 12.24 2.71994 12.53L6.06994 15.88C6.35994 16.17 6.83994 16.17 7.12994 15.88C7.41994 15.59 7.41994 15.11 7.12994 14.82L5.05994 12.75H9.49994V11.25H5.05994Z" fill="white"/>
</g>
</g>
</svg>
